<mxfile host="app.diagrams.net" modified="2020-11-23T19:54:15.202Z" agent="5.0 (X11)" etag="QZeB986jAcEl9DYJDS3t" version="13.10.0" type="github">
  <diagram name="Page-1" id="74e2e168-ea6b-b213-b513-2b3c1d86103e">
    <mxGraphModel dx="1078" dy="506" grid="1" gridSize="10" guides="1" tooltips="1" connect="1" arrows="1" fold="1" page="1" pageScale="1" pageWidth="1100" pageHeight="850" background="#ffffff" math="0" shadow="0">
      <root>
        <mxCell id="0" />
        <mxCell id="1" parent="0" />
        <mxCell id="77e6c97f196da883-1" value="JOURNEY: Occasional User Buys the Meal" style="swimlane;html=1;childLayout=stackLayout;startSize=20;rounded=0;shadow=0;labelBackgroundColor=none;strokeWidth=1;fontFamily=Verdana;fontSize=8;align=center;" parent="1" vertex="1">
          <mxGeometry x="70" y="40" width="1030" height="450" as="geometry">
            <mxRectangle x="70" y="40" width="70" height="20" as="alternateBounds" />
          </mxGeometry>
        </mxCell>
        <mxCell id="77e6c97f196da883-2" value="&lt;div&gt;Actors&lt;/div&gt;" style="swimlane;html=1;startSize=20;" parent="77e6c97f196da883-1" vertex="1">
          <mxGeometry y="20" width="160" height="430" as="geometry" />
        </mxCell>
        <mxCell id="QJ3G4-R3qcjC6Z-IzL42-3" value="Occasional User" style="shape=umlActor;verticalLabelPosition=bottom;verticalAlign=top;html=1;outlineConnect=0;" parent="77e6c97f196da883-2" vertex="1">
          <mxGeometry x="65" y="180" width="30" height="60" as="geometry" />
        </mxCell>
        <mxCell id="77e6c97f196da883-3" value="&lt;div&gt;Menu Catalog&lt;/div&gt;" style="swimlane;html=1;startSize=20;" parent="77e6c97f196da883-1" vertex="1">
          <mxGeometry x="160" y="20" width="160" height="430" as="geometry" />
        </mxCell>
        <mxCell id="QJ3G4-R3qcjC6Z-IzL42-19" value="Selects a Meal" style="ellipse;whiteSpace=wrap;html=1;aspect=fixed;" parent="77e6c97f196da883-3" vertex="1">
          <mxGeometry x="40" y="170.0000000000001" width="80" height="80" as="geometry" />
        </mxCell>
        <mxCell id="77e6c97f196da883-4" value="Point of Sale" style="swimlane;html=1;startSize=20;" parent="77e6c97f196da883-1" vertex="1">
          <mxGeometry x="320" y="20" width="160" height="430" as="geometry">
            <mxRectangle x="320" y="20" width="30" height="730" as="alternateBounds" />
          </mxGeometry>
        </mxCell>
        <mxCell id="QJ3G4-R3qcjC6Z-IzL42-20" value="&lt;div&gt;Has Coupon&lt;/div&gt;" style="rhombus;whiteSpace=wrap;html=1;" parent="77e6c97f196da883-4" vertex="1">
          <mxGeometry x="60" y="170" width="80" height="80" as="geometry" />
        </mxCell>
        <mxCell id="QJ3G4-R3qcjC6Z-IzL42-11" value="Cashier" style="shape=umlActor;verticalLabelPosition=bottom;verticalAlign=top;html=1;outlineConnect=0;" parent="77e6c97f196da883-4" vertex="1">
          <mxGeometry x="85" y="264" width="30" height="60" as="geometry" />
        </mxCell>
        <mxCell id="77e6c97f196da883-5" value="&lt;div&gt;Ordering System&lt;/div&gt;" style="swimlane;html=1;startSize=20;" parent="77e6c97f196da883-1" vertex="1">
          <mxGeometry x="480" y="20" width="170" height="430" as="geometry" />
        </mxCell>
        <mxCell id="QJ3G4-R3qcjC6Z-IzL42-29" value="&lt;div&gt;Make Order&lt;/div&gt;" style="whiteSpace=wrap;html=1;aspect=fixed;" parent="77e6c97f196da883-5" vertex="1">
          <mxGeometry x="50" y="170" width="80" height="80" as="geometry" />
        </mxCell>
        <mxCell id="QJ3G4-R3qcjC6Z-IzL42-30" value="Access Code" style="whiteSpace=wrap;html=1;aspect=fixed;" parent="77e6c97f196da883-5" vertex="1">
          <mxGeometry x="50" y="320" width="80" height="80" as="geometry" />
        </mxCell>
        <mxCell id="QJ3G4-R3qcjC6Z-IzL42-31" value="generates" style="endArrow=classic;html=1;exitX=0.5;exitY=1;exitDx=0;exitDy=0;entryX=0.5;entryY=0;entryDx=0;entryDy=0;" parent="77e6c97f196da883-5" source="QJ3G4-R3qcjC6Z-IzL42-29" target="QJ3G4-R3qcjC6Z-IzL42-30" edge="1">
          <mxGeometry width="50" height="50" relative="1" as="geometry">
            <mxPoint x="100" y="330" as="sourcePoint" />
            <mxPoint x="150" y="280" as="targetPoint" />
          </mxGeometry>
        </mxCell>
        <mxCell id="QJ3G4-R3qcjC6Z-IzL42-15" value="Browses" style="endArrow=classic;html=1;entryX=0;entryY=0.5;entryDx=0;entryDy=0;" parent="77e6c97f196da883-1" source="QJ3G4-R3qcjC6Z-IzL42-3" target="QJ3G4-R3qcjC6Z-IzL42-19" edge="1">
          <mxGeometry width="50" height="50" relative="1" as="geometry">
            <mxPoint x="530" y="310" as="sourcePoint" />
            <mxPoint x="205" y="230.0000000000001" as="targetPoint" />
          </mxGeometry>
        </mxCell>
        <mxCell id="QJ3G4-R3qcjC6Z-IzL42-21" value="payment (cash)" style="endArrow=classic;startArrow=classic;html=1;exitX=1;exitY=0.5;exitDx=0;exitDy=0;entryX=0;entryY=0.5;entryDx=0;entryDy=0;" parent="77e6c97f196da883-1" source="QJ3G4-R3qcjC6Z-IzL42-19" target="QJ3G4-R3qcjC6Z-IzL42-20" edge="1">
          <mxGeometry width="50" height="50" relative="1" as="geometry">
            <mxPoint x="530" y="330" as="sourcePoint" />
            <mxPoint x="580" y="280" as="targetPoint" />
          </mxGeometry>
        </mxCell>
        <mxCell id="77e6c97f196da883-6" value="Loyalty / Promotion System" style="swimlane;html=1;startSize=20;" parent="77e6c97f196da883-1" vertex="1">
          <mxGeometry x="650" y="20" width="180" height="430" as="geometry" />
        </mxCell>
        <mxCell id="QJ3G4-R3qcjC6Z-IzL42-40" value="&lt;div&gt;Apply Discount&lt;/div&gt;" style="whiteSpace=wrap;html=1;" parent="77e6c97f196da883-6" vertex="1">
          <mxGeometry x="45" y="50" width="90" height="60" as="geometry" />
        </mxCell>
        <mxCell id="77e6c97f196da883-7" value="Smart Fridge" style="swimlane;html=1;startSize=20;" parent="77e6c97f196da883-1" vertex="1">
          <mxGeometry x="830" y="20" width="200" height="430" as="geometry" />
        </mxCell>
        <mxCell id="QJ3G4-R3qcjC6Z-IzL42-46" value="Valid Code?" style="rhombus;whiteSpace=wrap;html=1;" parent="77e6c97f196da883-7" vertex="1">
          <mxGeometry x="60" y="230" width="80" height="80" as="geometry" />
        </mxCell>
        <mxCell id="QJ3G4-R3qcjC6Z-IzL42-49" value="&lt;div&gt;Provides Meals&lt;br&gt;&lt;/div&gt;" style="ellipse;whiteSpace=wrap;html=1;aspect=fixed;" parent="77e6c97f196da883-7" vertex="1">
          <mxGeometry x="60" y="80" width="80" height="80" as="geometry" />
        </mxCell>
        <mxCell id="QJ3G4-R3qcjC6Z-IzL42-48" value="&lt;div&gt;Yes&lt;/div&gt;&lt;div&gt;&lt;br&gt;&lt;/div&gt;" style="endArrow=classic;html=1;exitX=0.5;exitY=0;exitDx=0;exitDy=0;entryX=0.5;entryY=1;entryDx=0;entryDy=0;" parent="77e6c97f196da883-7" source="QJ3G4-R3qcjC6Z-IzL42-46" target="QJ3G4-R3qcjC6Z-IzL42-49" edge="1">
          <mxGeometry x="-0.1429" width="50" height="50" relative="1" as="geometry">
            <mxPoint x="-130" y="350" as="sourcePoint" />
            <mxPoint x="-100" y="270" as="targetPoint" />
            <Array as="points" />
            <mxPoint as="offset" />
          </mxGeometry>
        </mxCell>
        <mxCell id="QJ3G4-R3qcjC6Z-IzL42-27" value="&lt;div&gt;No&lt;/div&gt;" style="endArrow=classic;html=1;exitX=1;exitY=0.5;exitDx=0;exitDy=0;" parent="77e6c97f196da883-1" source="QJ3G4-R3qcjC6Z-IzL42-20" edge="1">
          <mxGeometry width="50" height="50" relative="1" as="geometry">
            <mxPoint x="600" y="360" as="sourcePoint" />
            <mxPoint x="530" y="230" as="targetPoint" />
          </mxGeometry>
        </mxCell>
        <mxCell id="QJ3G4-R3qcjC6Z-IzL42-33" value="" style="endArrow=classic;html=1;exitX=1;exitY=0.5;exitDx=0;exitDy=0;" parent="77e6c97f196da883-1" source="QJ3G4-R3qcjC6Z-IzL42-30" edge="1">
          <mxGeometry width="50" height="50" relative="1" as="geometry">
            <mxPoint x="800" y="250" as="sourcePoint" />
            <mxPoint x="930" y="330" as="targetPoint" />
            <Array as="points">
              <mxPoint x="930" y="380" />
            </Array>
          </mxGeometry>
        </mxCell>
        <mxCell id="QJ3G4-R3qcjC6Z-IzL42-41" value="Yes" style="edgeStyle=orthogonalEdgeStyle;rounded=0;orthogonalLoop=1;jettySize=auto;html=1;exitX=0.5;exitY=0;exitDx=0;exitDy=0;" parent="77e6c97f196da883-1" source="QJ3G4-R3qcjC6Z-IzL42-20" target="QJ3G4-R3qcjC6Z-IzL42-40" edge="1">
          <mxGeometry relative="1" as="geometry">
            <Array as="points">
              <mxPoint x="420" y="110" />
            </Array>
          </mxGeometry>
        </mxCell>
        <mxCell id="QJ3G4-R3qcjC6Z-IzL42-44" value="create order" style="endArrow=classic;html=1;entryX=1;entryY=0.5;entryDx=0;entryDy=0;exitX=0.5;exitY=1;exitDx=0;exitDy=0;" parent="77e6c97f196da883-1" source="QJ3G4-R3qcjC6Z-IzL42-40" target="QJ3G4-R3qcjC6Z-IzL42-29" edge="1">
          <mxGeometry width="50" height="50" relative="1" as="geometry">
            <mxPoint x="730" y="190" as="sourcePoint" />
            <mxPoint x="780" y="140" as="targetPoint" />
            <Array as="points">
              <mxPoint x="740" y="230" />
            </Array>
          </mxGeometry>
        </mxCell>
        <mxCell id="QJ3G4-R3qcjC6Z-IzL42-50" value="No (generate new code)" style="endArrow=classic;html=1;exitX=0;exitY=0.5;exitDx=0;exitDy=0;entryX=1;entryY=1;entryDx=0;entryDy=0;" parent="77e6c97f196da883-1" edge="1">
          <mxGeometry width="50" height="50" relative="1" as="geometry">
            <mxPoint x="889" y="290" as="sourcePoint" />
            <mxPoint x="609" y="270" as="targetPoint" />
            <Array as="points">
              <mxPoint x="889" y="270" />
            </Array>
          </mxGeometry>
        </mxCell>
        <mxCell id="fcnhsFOALU5Ui2evHua8-1" value="update meals" style="endArrow=classic;html=1;exitX=0;exitY=0.5;exitDx=0;exitDy=0;" parent="77e6c97f196da883-1" source="QJ3G4-R3qcjC6Z-IzL42-49" target="QJ3G4-R3qcjC6Z-IzL42-29" edge="1">
          <mxGeometry x="0.2432" width="50" height="50" relative="1" as="geometry">
            <mxPoint x="860" y="440" as="sourcePoint" />
            <mxPoint x="890" y="280" as="targetPoint" />
            <Array as="points">
              <mxPoint x="570" y="140" />
            </Array>
            <mxPoint as="offset" />
          </mxGeometry>
        </mxCell>
      </root>
    </mxGraphModel>
  </diagram>
</mxfile>
